<?xml version="1.0" standalone="no"?>
<!DOCTYPE svg PUBLIC "-//W3C//DTD SVG 20010904//EN"
 "http://www.w3.org/TR/2001/REC-SVG-20010904/DTD/svg10.dtd">
<svg version="1.0" xmlns="http://www.w3.org/2000/svg"
 width="200.000000pt" height="200.000000pt" viewBox="0 0 200.000000 200.000000"
 preserveAspectRatio="xMidYMid meet">
<metadata>
Created by potrace 1.11, written by Peter Selinger 2001-2013
</metadata>
<g transform="translate(0.000000,200.000000) scale(0.100000,-0.100000)"
fill="#000000" stroke="none">
<path d="M833 1986 c-375 -72 -674 -335 -786 -691 -95 -303 -38 -637 153 -894
81 -109 211 -224 318 -280 22 -12 22 -10 -8 41 -86 147 -157 365 -147 450 7
60 25 97 38 77 12 -19 11 -29 -3 -26 -21 4 -22 -87 -1 -132 11 -23 23 -38 27
-34 4 4 4 0 1 -9 -4 -9 0 -18 10 -22 9 -3 13 -2 10 3 -3 5 3 12 12 14 16 4 16
5 -1 6 -14 1 -17 6 -12 27 4 14 16 35 27 47 16 17 19 18 14 5 -4 -10 -3 -18 3
-18 13 0 23 -43 12 -54 -5 -5 0 -16 13 -27 17 -13 22 -28 22 -67 0 -28 -4 -48
-9 -45 -14 9 -25 -19 -15 -44 8 -21 7 -23 -11 -13 -18 9 -20 8 -20 -15 0 -16
6 -25 15 -25 8 0 15 -6 15 -13 0 -7 9 -29 20 -50 11 -20 17 -37 13 -37 -5 0
-3 -4 2 -8 6 -4 17 -20 25 -37 13 -24 30 -35 93 -57 135 -47 217 -60 373 -54
99 3 162 10 219 26 91 24 240 92 311 141 67 46 187 162 241 233 87 115 169
317 187 461 5 40 4 41 -26 43 -16 1 -40 7 -52 13 -17 9 -17 7 4 -10 19 -16 20
-20 6 -14 -12 4 -17 3 -13 -4 3 -5 0 -10 -8 -10 -8 0 -12 4 -9 9 3 4 0 16 -6
25 -11 17 -11 17 -6 0 4 -14 2 -16 -12 -9 -21 10 -53 9 -71 -2 -9 -6 -12 -5
-7 2 3 6 2 13 -4 17 -5 3 -10 1 -10 -6 0 -7 -3 -9 -6 -6 -4 4 -1 13 5 21 8 10
9 16 1 21 -6 3 -8 10 -5 15 3 5 0 12 -6 16 -8 4 -9 3 -5 -4 4 -8 0 -12 -11
-13 -14 0 -14 -2 5 -9 12 -5 22 -12 22 -16 0 -3 -7 -3 -16 0 -10 4 -13 2 -8
-6 5 -8 2 -9 -11 -4 -14 5 -16 4 -7 -7 9 -10 8 -14 -3 -14 -10 0 -15 10 -15
27 0 15 -9 35 -21 46 -23 20 -79 26 -92 9 -5 -6 -6 -1 -2 10 24 74 36 141 36
215 0 47 2 119 5 161 6 76 6 77 -44 175 -27 55 -61 128 -76 164 -15 36 -40 86
-56 111 -30 46 -80 99 -80 84 0 -4 -8 -1 -19 9 -59 54 -384 91 -538 62z m458
-395 c73 -25 130 -54 152 -79 32 -35 67 -162 88 -315 11 -81 26 -179 34 -216
18 -86 13 -128 -36 -316 -58 -224 -103 -354 -129 -370 -13 -8 -13 1 1 28 6 13
-4 6 -25 -16 -32 -34 -39 -37 -53 -25 -12 9 -15 9 -9 0 8 -13 -17 -45 -28 -35
-3 4 -6 1 -6 -5 0 -7 -7 -12 -15 -12 -10 0 -12 -6 -8 -18 6 -14 4 -15 -8 -5
-12 10 -17 7 -28 -18 -7 -16 -17 -27 -22 -23 -5 3 -14 -6 -21 -20 -9 -20 -14
-23 -25 -15 -10 9 -13 8 -13 0 0 -7 -4 -10 -9 -7 -5 4 -11 1 -13 -6 -7 -20
-56 6 -55 29 0 54 -5 106 -10 95 -4 -10 -9 -8 -19 6 -8 11 -11 27 -8 35 3 8
-2 17 -10 20 -10 4 -13 1 -9 -9 3 -8 -1 -14 -8 -14 -9 0 -10 -3 -4 -8 14 -10
17 -32 4 -32 -8 0 -9 -4 0 -13 6 -8 8 -17 4 -20 -3 -4 -7 -26 -7 -50 -1 -35
-5 -43 -22 -45 -12 -2 -39 5 -60 14 -22 9 -43 16 -48 15 -5 -1 -6 5 -3 13 4 9
3 15 -1 14 -14 -4 -54 14 -46 21 5 3 -2 17 -15 31 -13 14 -21 18 -16 10 4 -8
-5 0 -22 17 -21 23 -33 29 -40 22 -8 -8 -13 -7 -18 2 -5 8 -4 10 3 5 7 -4 12
-3 12 2 0 6 -7 12 -15 16 -8 3 -15 13 -15 21 0 10 -5 13 -12 9 -8 -5 -9 -2 -5
10 4 9 3 15 -2 12 -5 -3 -11 1 -15 9 -6 17 -37 21 -33 4 1 -6 -4 -13 -11 -15
-7 -1 -8 0 -3 2 6 3 7 12 4 20 -3 8 0 14 7 14 10 0 10 3 0 15 -7 8 -16 12 -21
9 -5 -3 -9 -2 -8 3 5 26 -3 64 -16 76 -8 8 -11 17 -8 21 4 3 2 6 -3 6 -6 0
-15 -5 -22 -12 -9 -9 -12 -8 -12 6 0 9 5 14 10 11 17 -10 23 23 7 39 -18 18
-32 9 -16 -11 8 -9 8 -13 0 -13 -13 0 -16 13 -36 157 -9 61 -20 126 -26 145
-10 34 -13 308 -5 409 6 71 32 172 57 221 41 80 145 119 326 120 65 0 152 6
193 13 111 19 189 18 251 -4z m-875 -651 c23 -48 48 -152 59 -240 3 -30 9 -64
12 -75 l6 -20 -23 20 c-30 27 -56 81 -65 135 -4 25 -14 61 -22 80 -17 40 -33
131 -26 143 11 19 39 -1 59 -43z m1273 22 c11 -21 0 -80 -23 -127 -8 -16 -17
-50 -21 -75 -4 -25 -15 -61 -25 -80 -19 -36 -86 -107 -94 -99 -3 2 9 52 25
109 17 58 33 143 36 188 5 73 9 85 27 92 35 14 65 11 75 -8z m2 -135 c-10 -9
-11 -8 -5 6 3 10 9 15 12 12 3 -3 0 -11 -7 -18z m-1164 -569 c-3 -8 -6 -5 -6
6 -1 11 2 17 5 13 3 -3 4 -12 1 -19z m107 -15 c-7 -2 -10 -13 -7 -23 3 -11 1
-20 -5 -20 -6 0 -13 -8 -15 -17 -3 -10 -5 5 -6 33 -1 58 6 71 28 48 11 -11 12
-18 5 -21z m756 33 c0 -3 -4 -8 -10 -11 -5 -3 -10 -1 -10 4 0 6 5 11 10 11 6
0 10 -2 10 -4z m-38 -88 c-7 -7 -12 -8 -12 -2 0 14 12 26 19 19 2 -3 -1 -11
-7 -17z m-5 -60 c-3 -8 -6 -5 -6 6 -1 11 2 17 5 13 3 -3 4 -12 1 -19z m-37
-31 c0 -2 -10 -12 -22 -23 l-23 -19 19 23 c18 21 26 27 26 19z m-363 -83 c-3
-3 -12 -4 -19 -1 -8 3 -5 6 6 6 11 1 17 -2 13 -5z"/>
<path d="M582 1204 c-33 -16 -58 -37 -68 -56 -9 -16 -14 -32 -11 -34 2 -2 24
5 48 16 64 29 164 23 292 -16 13 -4 17 0 17 18 0 35 -10 44 -64 57 -27 7 -62
19 -77 27 -41 21 -78 17 -137 -12z"/>
<path d="M1150 1190 c-35 -8 -60 -33 -60 -58 0 -7 4 -10 10 -7 5 3 19 1 32 -6
16 -9 45 -9 123 1 97 12 103 12 153 -10 29 -13 67 -39 84 -59 l30 -36 -7 30
c-11 50 -54 114 -88 132 -36 19 -217 28 -277 13z"/>
<path d="M1229 1040 c-41 -12 -70 -30 -64 -40 15 -24 175 -43 205 -25 22 14
-34 56 -90 67 -14 3 -37 2 -51 -2z m-5 -36 c5 -12 2 -15 -10 -10 -8 3 -21 6
-27 6 -7 0 -6 4 3 10 21 14 27 12 34 -6z m126 -14 c0 -5 -5 -10 -11 -10 -5 0
-7 5 -4 10 3 6 8 10 11 10 2 0 4 -4 4 -10z"/>
<path d="M648 1018 c-45 -26 -47 -35 -12 -48 58 -22 194 -1 194 30 0 16 -64
40 -107 40 -21 0 -55 -10 -75 -22z m152 -13 c10 -12 10 -15 -4 -15 -9 0 -16 7
-16 15 0 8 2 15 4 15 2 0 9 -7 16 -15z m-135 -15 c3 -5 -1 -10 -10 -10 -9 0
-13 5 -10 10 3 6 8 10 10 10 2 0 7 -4 10 -10z"/>
<path d="M810 949 c-19 -10 -40 -19 -47 -19 -6 0 -14 -4 -17 -9 -9 -14 58 9
85 30 31 24 23 23 -21 -2z"/>
<path d="M1200 932 c8 -5 26 -13 40 -16 17 -5 20 -4 10 2 -8 5 -26 13 -40 16
-17 5 -20 4 -10 -2z"/>
<path d="M1095 790 c4 -8 19 -30 32 -48 27 -36 30 -52 20 -97 l-7 -30 16 28
c21 38 11 73 -33 122 -20 22 -32 33 -28 25z"/>
<path d="M861 744 c-36 -55 -39 -93 -10 -120 l21 -19 -18 31 c-21 37 -14 70
22 114 15 17 24 33 21 36 -2 3 -19 -16 -36 -42z"/>
<path d="M890 661 c0 -15 22 -25 55 -27 l30 -2 -24 19 c-24 20 -61 26 -61 10z"/>
<path d="M1056 661 c-8 -12 20 -22 39 -15 19 8 9 24 -15 24 -10 0 -21 -4 -24
-9z"/>
<path d="M957 543 c-10 -10 -8 -33 3 -33 5 0 6 8 3 18 -6 15 -5 16 13 2 18
-14 18 -14 5 3 -15 19 -15 19 -24 10z"/>
<path d="M916 504 c-9 -24 -7 -27 9 -10 17 17 19 26 6 26 -5 0 -12 -7 -15 -16z"/>
<path d="M820 502 c-21 -7 -53 -42 -46 -50 4 -3 16 0 28 7 11 7 17 8 14 2 -4
-5 -2 -12 4 -16 5 -3 10 1 10 9 0 9 9 16 20 16 11 0 20 5 20 11 0 5 5 7 11 3
7 -4 10 -1 7 7 -4 13 -41 19 -68 11z m37 -18 c-3 -3 -12 -4 -19 -1 -8 3 -5 6
6 6 11 1 17 -2 13 -5z"/>
<path d="M1100 437 c-30 -6 -99 -10 -152 -9 -53 2 -99 -2 -102 -7 -4 -6 23
-10 70 -9 41 0 78 -2 80 -5 3 -3 26 2 51 9 25 8 61 14 80 14 18 0 33 5 33 10
0 6 -1 9 -2 9 -2 -1 -28 -6 -58 -12z"/>
<path d="M1078 355 c-3 -3 -32 -10 -64 -15 l-59 -9 62 3 c33 2 69 9 80 15 15
8 15 10 2 11 -9 0 -18 -2 -21 -5z"/>
<path d="M377 923 c-8 -14 12 -53 28 -53 18 0 18 1 5 34 -9 25 -24 34 -33 19z"/>
<path d="M405 851 c-3 -5 -2 -12 3 -15 5 -3 9 1 9 9 0 17 -3 19 -12 6z"/>
<path d="M426 741 c-7 -11 9 -57 23 -65 18 -12 22 13 6 44 -17 32 -21 35 -29
21z"/>
<path d="M610 260 c0 -5 5 -10 11 -10 5 0 7 5 4 10 -3 6 -8 10 -11 10 -2 0 -4
-4 -4 -10z"/>
<path d="M1805 980 c-3 -6 1 -7 9 -4 18 7 21 14 7 14 -6 0 -13 -4 -16 -10z"/>
<path d="M1801 934 c0 -11 3 -14 6 -6 3 7 2 16 -1 19 -3 4 -6 -2 -5 -13z"/>
<path d="M1827 937 c-3 -8 1 -14 8 -14 7 0 11 6 8 14 -3 7 -6 13 -8 13 -2 0
-5 -6 -8 -13z"/>
<path d="M444 374 c3 -9 6 -18 6 -20 0 -2 4 -4 8 -4 4 0 8 9 8 20 0 11 -7 20
-14 20 -9 0 -12 -6 -8 -16z"/>
</g>
</svg>
